<?xml version="1.0" encoding="UTF-8" standalone="no"?>
<!-- Created with Inkscape (http://www.inkscape.org/) -->

<svg width="512" height="512" viewBox="0 0 512 512" version="1.1" id="svg1" xml:space="preserve"
  inkscape:export-filename="位图.png" inkscape:export-xdpi="96" inkscape:export-ydpi="96"
  xmlns:inkscape="http://www.inkscape.org/namespaces/inkscape"
  xmlns:sodipodi="http://sodipodi.sourceforge.net/DTD/sodipodi-0.dtd" xmlns="http://www.w3.org/2000/svg"
  xmlns:svg="http://www.w3.org/2000/svg">
  <sodipodi:namedview id="namedview1" pagecolor="#ffffff" bordercolor="#000000" borderopacity="0.25"
    inkscape:showpageshadow="2" inkscape:pageopacity="0.0" inkscape:pagecheckerboard="0" inkscape:deskcolor="#d1d1d1"
    inkscape:document-units="px" inkscape:export-bgcolor="#ffffff00" />
  <defs id="defs1" />
  <g inkscape:label="图层 1" inkscape:groupmode="layer" id="layer1">
    <g id="g16474" transform="matrix(4,0,0,4,361.93104,359.90801)">
      <path style="fill:#ffffff;fill-opacity:1"
        d="m -50.48276,-13.977001 v -4 h 4 4 v -4 -4.000001 h 12 12 v -4 -4 h 12 12.0000002 v -4 -4 h 7.9999998 8 v 4 4 h -8 -7.9999998 v 4 4 H -6.48276 h -12 v 4.000001 4 h -12 -12 v 4 3.9999995 h -4 -4 z m -16,-8 v -4.000001 h -4 -4 v -4 -4 h -4 -4 v -4 -4 h 4 4 v 4 4 h 4 4 v 4 4 h 4 4 v 4.000001 4 h -4 -4 z"
        id="path16480" inkscape:label="path16480" />
      <path style="fill:#fde696;fill-opacity:1"
        d="m -58.48276,-1.9770016 v -7.9999999 h 4 4 v 7.9999999 8 h -4 -4 z m -16,-11.9999994 v -12.000001 h 4 4 v -4 -4 h -4 -4 v -4 -4 h 12 12 v -4 -4 h 8 8 v -4 -4 h 24 24 v 8 8 h -3.9999998 -4 v 4 4 h 4 3.9999998 v 4 4 h -3.9999998 -4 v -4 -4 H -6.48276 h -12 v 4 4 h 4 4 v 4.000001 4 h -4 -4 v -4 -4.000001 h -12 -12 v 4.000001 4 h 4 4 v 4 3.9999995 h -4 -4 v -3.9999995 -4 h -8 -8 v -4 -4.000001 h -4 -4 v 12.000001 11.9999994 h -4 -4 z m 96,-24.000001 v -4 h 4 4 v 4 4 h -4 -4 z"
        id="path16479" />
      <path style="fill:#fad64a;fill-opacity:1"
        d="M -58.48276,10.022998 V 6.0229984 h -4 -4 V -5.9770015 -17.977001 h 4 4 V -5.9770015 6.0229984 h 4 4 v 3.9999996 4 h -4 -4 z m 56,-15.9999995 v -4 H 5.5172402 13.51724 v -3.9999995 -4 h 4 4 v -8.000001 -8 h 4 4 v 12.000001 11.9999995 h -8 -8 v 4 3.9999999 H 5.5172402 -2.48276 Z m -80,-15.9999995 v -12.000001 h 4 4 v 12.000001 11.9999995 h -4 -4 z m 24,-24.000001 v -4 h 4 4 v 4 4 h -4 -4 z m 72,0 v -4 h 4 4 v 4 4 h -4 -4 z m -24,-16 v -4 h 8 8.0000002 v 4 4 h -8.0000002 -8 z"
        id="path16478" />
      <path style="fill:#f3bc24;fill-opacity:1"
        d="M -66.48276,10.022998 V 6.0229984 h -4 -4 v -4 -4 h -4 -4 v -3.9999999 -4 h 4 4 v 4 3.9999999 h 4 4 v 4 4 h 4 4 v 3.9999996 4 h -4 -4 z m 16,-7.9999996 V -9.9770015 h 4 4 v 7.9999999 8 h 4 4 v 3.9999996 4 h -8 -8 z m 24,0 v -4 h 8 8 v -3.9999999 -4 h 4 4 v 4 3.9999999 h -4 -4 v 4 4 h -8 -8 z m -8,-15.9999994 v -4 h 4 4 v 4 3.9999995 h -4 -4 z m 40.0000002,0 v -4 h 4 3.9999998 v 4 3.9999995 h -3.9999998 -4 z m -16.0000002,-8 v -4.000001 h 4 4 v 4.000001 4 h -4 -4 z"
        id="path16477" />
      <path style="fill:#ec9f17;fill-opacity:1"
        d="m -42.48276,-1.9770016 v -7.9999999 h 8 8 v -3.9999995 -4 h 12 12 v -4 -4.000001 H 5.5172402 13.51724 v -4 -4 h 4 4 v 8 8.000001 h -8 -7.9999998 v 4 3.9999995 h -8.0000002 -8 v 4 3.9999999 h -8 -8 v 4 4 h -8 -8 z"
        id="path16476" />
      <path style="fill:#d57614;fill-opacity:1"
        d="m -66.48276,18.022998 v -4 h -4 -4 v -4 -3.9999996 h -4 -4 v -4 -4 h -4 -4 V -21.977001 -41.977002 h 4 4 v -4 -4 h 12 12 v -4 -4 h 12 12 v -4 -4 h 12 12 v -4 -4 h 8 8.0000002 v 4 4 h 4 3.9999998 v 4 4 h 4 4 v 4 4 h -4 -4 v -4 -4 h -3.9999998 -4 v -4 -4 h -8.0000002 -8 v 4 4 h -12 -12 v 4 4 h -12 -12 v 4 4 h -12 -12 v 20.000001 19.9999994 h 4 4 v 4 4 h 4 4 v 3.9999996 4 h 8 8 v 4 4 h -8 -8 z"
        id="path16475" />
      <path style="fill:#b1420b;fill-opacity:1"
        d="m -50.48276,18.022998 v -4 h 8 8 v -4 -3.9999996 h 12 12 v -4 -4 H 1.5172402 13.51724 v -3.9999999 -4 h 8 8 v -16.0000005 -16 h -4 -4 v -4 -4 h 4 4 v 4 4 h 4 4 v 16 16.0000005 h -4 -4 v 4 3.9999999 h -8 -8 v 4 4 H 1.5172402 -10.48276 v 3.9999996 4 h -12 -12 v 4 4 h -8 -8 z"
        id="path16474" />
    </g>
  </g>
</svg>